<svg width="148" height="167" viewBox="0 0 148 167" fill="none" xmlns="http://www.w3.org/2000/svg">
  <path fill-rule="evenodd" clip-rule="evenodd" d="M74 0C65.8169 0 59.0686 6.08851 58.1153 13.9441C50.7815 16.0297 44.4935 19.6335 39.3258 24.421C30.8896 32.2365 25.6756 42.982 23.5613 54.8099C23.5403 54.9276 23.5246 55.0462 23.5144 55.1653C22.7147 64.478 22.8737 74.9822 23.0175 84.479L23.0175 84.4821C23.0572 87.1056 23.0958 89.6522 23.1126 92.0755C23.1521 97.7656 23.0747 102.746 22.6637 106.659C22.4585 108.612 22.1811 110.185 21.8376 111.384C21.48 112.634 21.132 113.185 20.9773 113.362C19.2841 115.298 16.6195 117.619 13.4981 119.433C10.3553 121.259 7.04679 122.401 4 122.401C1.79086 122.401 0 124.175 0 126.365V141.727C0 143.916 1.79086 145.691 4 145.691H58L58 151.142C58 159.9 65.1635 167 74 167C82.8365 167 90 159.9 90 151.142L90 145.691H144C146.209 145.691 148 143.916 148 141.727V126.365C148 124.175 146.209 122.401 144 122.401C140.953 122.401 137.645 121.259 134.502 119.433C131.38 117.619 128.716 115.298 127.023 113.362C126.868 113.185 126.52 112.634 126.162 111.384C125.819 110.185 125.541 108.612 125.336 106.659C124.925 102.746 124.848 97.7656 124.887 92.0755C124.904 89.6536 124.943 87.1085 124.982 84.4866L124.983 84.4815L124.983 84.479C125.126 74.9822 125.285 64.478 124.486 55.1653C124.475 55.0462 124.46 54.9276 124.439 54.8099C122.324 42.982 117.11 32.2365 108.674 24.421C103.507 19.6335 97.2185 16.0297 89.8847 13.9441C88.9314 6.08851 82.1831 0 74 0ZM74 31.7151C67.3224 31.7151 61.6002 27.6608 59.2027 21.9004C53.5217 23.6912 48.7292 26.5628 44.7888 30.2133C37.8853 36.6089 33.3612 45.6201 31.4703 56.0179C31.2543 58.5781 31.1134 61.2267 31.0257 63.9258H116.974C116.887 61.2267 116.746 58.5781 116.53 56.0179C114.639 45.6201 110.115 36.6089 103.211 30.2133C99.2708 26.5628 94.4783 23.6912 88.7973 21.9004C86.3998 27.6608 80.6776 31.7151 74 31.7151ZM30.9003 71.8546C30.8953 74.3302 30.9159 76.817 30.9464 79.2878H117.054C117.084 76.817 117.105 74.3302 117.1 71.8546H30.9003ZM31.0598 87.2166C31.0823 88.8416 31.1015 90.4458 31.1124 92.0209C31.1221 93.4164 31.1252 94.7914 31.1176 96.1365H116.882C116.875 94.7914 116.878 93.4164 116.888 92.0209C116.899 90.4458 116.918 88.8416 116.94 87.2166H31.0598ZM30.8946 104.065C30.8243 105.257 30.7343 106.398 30.6207 107.48C30.3899 109.677 30.0504 111.744 29.5339 113.548C29.0315 115.303 28.2763 117.121 27.0227 118.555C24.7727 121.128 21.4373 124.01 17.5445 126.273C14.7321 127.907 11.472 129.307 8 129.952V137.763H140V129.952C136.528 129.307 133.268 127.907 130.456 126.273C126.563 124.01 123.227 121.128 120.977 118.555C119.724 117.121 118.969 115.303 118.466 113.548C117.95 111.744 117.61 109.677 117.379 107.48C117.266 106.398 117.176 105.257 117.105 104.065H30.8946ZM66 147.674L66 151.142C66 155.521 69.5818 159.071 74 159.071C78.4182 159.071 82 155.521 82 151.142L82 147.674H66Z" fill="#902235"/>
</svg>
