<svg width="40" height="41" viewBox="0 0 40 41" fill="none" xmlns="http://www.w3.org/2000/svg">
<g clip-path="url(#clip0)">
<path d="M0.618774 20.0671C0.618774 9.36236 9.29612 0.685715 19.9997 0.685715C30.7038 0.685715 39.3811 9.36236 39.3811 20.0671C39.3811 30.7704 30.7038 39.4476 19.9997 39.4476C9.29612 39.4476 0.618774 30.7704 0.618774 20.0671Z" fill="#C1C2C2"/>
<path fill-rule="evenodd" clip-rule="evenodd" d="M23.1032 13.5032C23.3246 13.274 23.5895 13.0911 23.8823 12.9654C24.1751 12.8396 24.49 12.7734 24.8087 12.7706C25.1274 12.7678 25.4434 12.8286 25.7383 12.9492C26.0333 13.0699 26.3013 13.2481 26.5266 13.4735C26.7519 13.6988 26.9301 13.9668 27.0508 14.2617C27.1715 14.5567 27.2322 14.8727 27.2295 15.1914C27.2267 15.51 27.1605 15.825 27.0347 16.1178C26.9089 16.4106 26.7261 16.6754 26.4968 16.8968L22.8968 20.4968C22.4468 20.9467 21.8364 21.1995 21.2 21.1995C20.5637 21.1995 19.9533 20.9467 19.5033 20.4968C19.2769 20.2782 18.9738 20.1573 18.6592 20.16C18.3445 20.1627 18.0436 20.2889 17.8211 20.5114C17.5986 20.7339 17.4724 21.0349 17.4696 21.3495C17.4669 21.6642 17.5879 21.9673 17.8064 22.1936C18.7066 23.0935 19.9273 23.599 21.2 23.599C22.4728 23.599 23.6935 23.0935 24.5936 22.1936L28.1936 18.5936C29.068 17.6883 29.5518 16.4758 29.5409 15.2173C29.5299 13.9587 29.0251 12.7548 28.1352 11.8649C27.2452 10.9749 26.0413 10.4701 24.7828 10.4592C23.5242 10.4482 22.3117 10.932 21.4064 11.8064L19.6064 13.6064C19.4918 13.7171 19.4004 13.8495 19.3375 13.9959C19.2746 14.1423 19.2415 14.2998 19.2401 14.4591C19.2388 14.6185 19.2691 14.7765 19.3295 14.9239C19.3898 15.0714 19.4789 15.2054 19.5916 15.3181C19.7042 15.4307 19.8382 15.5199 19.9857 15.5802C20.1332 15.6405 20.2912 15.6709 20.4505 15.6695C20.6099 15.6681 20.7673 15.635 20.9137 15.5721C21.0601 15.5092 21.1926 15.4178 21.3032 15.3032L23.1032 13.5032ZM17.1032 19.5032C17.5533 19.0533 18.1637 18.8005 18.8 18.8005C19.4364 18.8005 20.0468 19.0533 20.4968 19.5032C20.6075 19.6178 20.74 19.7092 20.8864 19.7721C21.0328 19.835 21.1902 19.8681 21.3496 19.8695C21.5089 19.8709 21.6669 19.8405 21.8144 19.7802C21.9619 19.7199 22.0959 19.6307 22.2085 19.5181C22.3212 19.4054 22.4103 19.2714 22.4706 19.1239C22.531 18.9765 22.5613 18.8185 22.5599 18.6591C22.5586 18.4998 22.5255 18.3423 22.4626 18.1959C22.3997 18.0495 22.3083 17.9171 22.1936 17.8064C21.2935 16.9065 20.0728 16.401 18.8 16.401C17.5273 16.401 16.3066 16.9065 15.4064 17.8064L11.8064 21.4064C11.348 21.8492 10.9823 22.3788 10.7308 22.9645C10.4792 23.5501 10.3468 24.1799 10.3412 24.8173C10.3357 25.4546 10.4572 26.0867 10.6985 26.6766C10.9399 27.2665 11.2963 27.8024 11.747 28.2531C12.1976 28.7038 12.7336 29.0602 13.3235 29.3015C13.9134 29.5429 14.5454 29.6643 15.1828 29.6588C15.8201 29.6533 16.45 29.5208 17.0356 29.2693C17.6212 29.0177 18.1509 28.652 18.5936 28.1936L20.3936 26.3936C20.5083 26.2829 20.5997 26.1505 20.6626 26.0041C20.7255 25.8577 20.7586 25.7002 20.7599 25.5409C20.7613 25.3815 20.731 25.2235 20.6706 25.0761C20.6103 24.9286 20.5212 24.7946 20.4085 24.6819C20.2959 24.5693 20.1619 24.4802 20.0144 24.4198C19.8669 24.3595 19.7089 24.3291 19.5496 24.3305C19.3902 24.3319 19.2328 24.365 19.0864 24.4279C18.94 24.4908 18.8075 24.5822 18.6968 24.6968L16.8968 26.4968C16.6755 26.726 16.4106 26.9089 16.1178 27.0346C15.825 27.1604 15.5101 27.2266 15.1914 27.2294C14.8727 27.2322 14.5567 27.1714 14.2618 27.0508C13.9668 26.9301 13.6988 26.7519 13.4735 26.5265C13.2482 26.3012 13.07 26.0332 12.9493 25.7383C12.8286 25.4433 12.7679 25.1273 12.7706 24.8086C12.7734 24.49 12.8396 24.175 12.9654 23.8822C13.0912 23.5894 13.274 23.3246 13.5032 23.1032L17.1032 19.5032Z" fill="white"/>
</g>
<defs>
<clipPath id="clip0">
<rect width="40" height="40" fill="white" transform="translate(0 0.0666656)"/>
</clipPath>
</defs>
</svg>
