<svg id="OHA_Mini_Logo" data-name="OHA Mini Logo" xmlns="http://www.w3.org/2000/svg" width="168" height="167.999" viewBox="0 0 168 167.999">
  <path id="Path_26" data-name="Path 26" d="M551.227,164.607l-27.246-12v29.39l27.246-11.862Z" transform="translate(-498.554 -86.076)" fill="#9d3e18"/>
  <path id="Path_27" data-name="Path 27" d="M551.031,182.033,524.1,169.907l.159,28.243.114.054,26.66-11.608Z" transform="translate(-498.357 -56.605)" fill="#9d3e18"/>
  <path id="Path_28" data-name="Path 28" d="M556.155,184.973V161.393l-5.148-2.525-26.9,11.71Z" transform="translate(-498.333 -75.405)" fill="#c85e04"/>
  <path id="Path_29" data-name="Path 29" d="M558.173,180.936v6.725l24.2,10.529.239-.153.053-28.123Z" transform="translate(-440.32 -56.593)" fill="#a1072d"/>
  <path id="Path_30" data-name="Path 30" d="M533.75,150.742l32.186-14.277,32.207,14.2L584.251,156.7l-7.684,3.346-10.632-4.707L554.729,160.3Z" transform="translate(-481.917 -113.561)" fill="#005388"/>
  <path id="Path_31" data-name="Path 31" d="M557.479,169.472l26.475-11.67v15.13Z" transform="translate(-441.502 -77.22)" fill="#a1072d"/>
  <path id="Path_32" data-name="Path 32" d="M555.153,165.272l7.3-3.245,26.28,3.372-33.581,14.869Z" transform="translate(-445.464 -70.024)" fill="#c50c35"/>
  <path id="Path_33" data-name="Path 33" d="M514.575,223.227l26.013,11.836V207.147L572.1,221.34V249.4l26.512,12.063v-76L572.1,173.732v28.9l-31.513-14.1V159.78l-26.013-11.516Z" transform="translate(-514.575 -93.466)" fill="#e98506"/>
  <path id="Path_34" data-name="Path 34" d="M545.664,185.47v75.994L572.152,249.4V221.341l31.484-14.194v27.915l25.988-11.837V148.264Zm57.972,3.209-31.484,13.954V188.6l31.484-13.878Z" transform="translate(-461.625 -93.466)" fill="#db2747"/>
  <path id="Path_35" data-name="Path 35" d="M682.575,160.274l-.112-18.41-.357-.158-83.491,36.339-83.983-36.258-.057.025v18.462l84.039,37.2h0Z" transform="translate(-514.575 -104.636)" fill="#006bad"/>
  <path id="Path_36" data-name="Path 36" d="M546.126,161.092" transform="translate(-460.838 -71.618)" fill="none" stroke="#1a1311" stroke-miterlimit="10" stroke-width="1"/>
  <path id="Path_37" data-name="Path 37" d="M558.143,161.092" transform="translate(-440.372 -71.618)" fill="none" stroke="#1a1311" stroke-miterlimit="10" stroke-width="1"/>
  <path id="Path_38" data-name="Path 38" d="M567.11,148.575" transform="translate(-425.099 -92.936)" fill="none" stroke="#1a1311" stroke-miterlimit="10" stroke-width="1"/>
  <path id="Path_39" data-name="Path 39" d="M598.519,127.992l-83.944,37.176,84.038,37.193,83.849-37.141Zm.035,51.036-31.305-13.854,31.27-13.851,31.27,13.87Z" transform="translate(-514.575 -127.992)" fill="#008bd0"/>
  <path id="Path_40" data-name="Path 40" d="M550.321,145.512" transform="translate(-453.694 -98.153)" fill="none" stroke="#1a1311" stroke-miterlimit="10" stroke-width="0.5"/>
</svg>
