<svg width="60" height="60" viewBox="0 0 60 60" fill="none" xmlns="http://www.w3.org/2000/svg">
<g clip-path="url(#clip0)">
<path d="M17.5579 30.1771L8.47596 26.1759V35.9724L17.5579 32.0185V30.1771Z" fill="#9D3E18"/>
<path d="M17.5577 45.8094L8.57976 41.7671L8.63275 51.1815L8.67103 51.1994L17.5577 47.3302L17.5577 45.8094Z" fill="#9D3E18"/>
<path d="M19.2736 40.5227V32.6625L17.5576 31.8209L8.59239 35.7244L19.2736 40.5227Z" fill="#C85E04"/>
<path d="M39.2846 45.4477V47.6893L47.3502 51.1991L47.4298 51.1481L47.4474 41.7737L39.2846 45.4477Z" fill="#A1072D"/>
<path d="M17.2775 16.3937L28.006 11.6346L38.7417 16.3663L34.1111 18.3788L31.5499 19.4945L28.0061 17.9256L24.2705 19.5783L17.2775 16.3937Z" fill="#005388"/>
<path d="M38.6593 34.7506L47.4842 30.8607V35.9041L38.6593 34.7506Z" fill="#A1072D"/>
<path d="M36.5626 35.7492L38.9962 34.6676L47.7563 35.7917L36.5626 40.7479V35.7492Z" fill="#C50C35"/>
<path d="M7.62939e-06 47.2536L8.67104 51.199V41.8937L19.1755 46.6248V55.9785L28.013 59.9997V34.6678L19.1755 30.7552V40.3891L8.67104 35.6902V26.1047L7.62939e-06 22.2656V47.2536Z" fill="#E98506"/>
<path d="M28.0134 34.6673V60L36.8427 55.9784V46.6253L47.3365 41.8933V51.1987L55.9999 47.2538V22.2664L28.0134 34.6673ZM47.3366 35.7375L36.8427 40.3886V35.7129L47.3365 31.0866L47.3366 35.7375Z" fill="#DB2747"/>
<path d="M56.0001 22.5461L55.9626 16.4095L55.8435 16.3568L28.013 28.4698L0.0188448 16.3838L8.7738e-05 16.3921V22.5461L28.013 34.9472V34.9477L56.0001 22.5461Z" fill="#006BAD"/>
<path d="M27.9813 3.99999L7.62939e-06 16.3915L28.0135 28.7892L55.9627 16.409L27.9813 3.99999ZM27.9927 21.0115L17.5581 16.3936L27.9815 11.778L38.405 16.4001L27.9927 21.0115Z" fill="#008BD0"/>
</g>
<rect x="19.3571" y="0.5" width="40.1429" height="15" rx="2.5" fill="#E33954" stroke="#E33939"/>
<circle cx="26.5714" cy="8.28571" r="2" fill="white"/>
<path d="M32.2399 11.4286V4.9375H33.5613V10.3259H36.8471V11.4286H32.2399Z" fill="white"/>
<path d="M38.6676 11.4286V4.88393H39.989V11.4286H38.6676Z" fill="white"/>
<path d="M43.8363 11.4286L41.4971 4.88393H42.9301L44.5863 9.72768L46.189 4.88393H47.5908L45.2471 11.4286H43.8363Z" fill="white"/>
<path d="M49.1792 11.4286V4.88393H54.0319V5.99107H50.5006V7.44196H53.7863V8.54464H50.5006V10.3259H54.1569V11.4286H49.1792Z" fill="white"/>
<defs>
<clipPath id="clip0">
<rect width="56" height="56" fill="white" transform="translate(0 4)"/>
</clipPath>
</defs>
</svg>
