<svg width="300" height="300" viewBox="0 0 300 300" fill="none" xmlns="http://www.w3.org/2000/svg">
<g clip-path="url(#clip0)">
<path d="M94.0595 140.235L45.4065 118.8V171.281L94.0595 150.099V140.235Z" fill="#A7A7A7"/>
<path d="M94.0592 223.979L45.9631 202.323L46.247 252.758L46.4521 252.854L94.0595 232.126L94.0592 223.979Z" fill="#A7A7A7"/>
<path d="M103.251 195.657V153.549L94.0583 149.041L46.0305 169.952L103.251 195.657Z" fill="#C9C8C7"/>
<path d="M210.454 222.041V234.049L253.663 252.852L254.089 252.579L254.183 202.359L210.454 222.041Z" fill="#A8A6A6"/>
<path d="M92.5583 66.3946L150.032 40.8995L207.545 66.2481L182.738 77.0294L169.017 83.0059L150.033 74.6015L130.021 83.4554L92.5583 66.3946Z" fill="#ADADAD"/>
<path d="M207.103 164.736L254.38 143.897V170.915L207.103 164.736Z" fill="#A8A6A6"/>
<path d="M195.872 170.085L208.909 164.291L255.838 170.313L195.872 196.864V170.085Z" fill="#C5C4C4"/>
<path d="M0 231.716L46.452 252.851V203.002L102.726 228.347V278.456L150.069 299.998V164.292L102.726 143.331V194.941L46.452 169.769V118.418L0 97.8516V231.716Z" fill="#E2E2E2"/>
<path d="M150.072 164.289V300L197.372 278.456V228.35L253.588 203V252.85L299.999 231.717V97.856L150.072 164.289ZM253.588 170.023L197.372 194.939V169.891L253.588 145.107L253.588 170.023Z" fill="#D2D2D2"/>
<path d="M300 99.3541L299.799 66.4794L299.161 66.197L150.069 131.088L0.100484 66.342L0 66.3863V99.3541L150.069 165.789V165.791L300 99.3541Z" fill="#C0C0C0"/>
<path d="M149.9 0L0 66.3833L150.072 132.799L299.8 66.477L149.9 0ZM149.961 91.1333L94.0611 66.3944L149.901 41.6678L205.741 66.429L149.961 91.1333Z" fill="#D6D6D6"/>
</g>
<defs>
<clipPath id="clip0">
<rect width="300" height="300" fill="white"/>
</clipPath>
</defs>
</svg>
