<svg width="96" height="96" viewBox="0 0 96 96" fill="none" xmlns="http://www.w3.org/2000/svg">
<path fill-rule="evenodd" clip-rule="evenodd" d="M8 48C8 25.908 25.908 8 48 8C70.092 8 88 25.908 88 48C88 70.092 70.092 88 48 88C25.908 88 8 70.092 8 48ZM62.828 42.828C63.5566 42.0736 63.9598 41.0632 63.9507 40.0144C63.9416 38.9656 63.5209 37.9624 62.7793 37.2207C62.0376 36.4791 61.0344 36.0584 59.9856 36.0493C58.9368 36.0402 57.9264 36.4434 57.172 37.172L44 50.344L38.828 45.172C38.0736 44.4434 37.0632 44.0402 36.0144 44.0493C34.9656 44.0584 33.9624 44.4791 33.2207 45.2207C32.4791 45.9624 32.0584 46.9656 32.0493 48.0144C32.0402 49.0632 32.4434 50.0736 33.172 50.828L41.172 58.828C41.9221 59.5779 42.9393 59.9992 44 59.9992C45.0607 59.9992 46.0779 59.5779 46.828 58.828L62.828 42.828Z" fill="#80B938"/>
</svg>
