<svg width="16" height="16" viewBox="0 0 16 16" fill="none" xmlns="http://www.w3.org/2000/svg">
<path fill-rule="evenodd" clip-rule="evenodd" d="M0.929612 0.929612C1.32014 0.539088 1.9533 0.539088 2.34383 0.929612L15.0717 13.6575C15.4623 14.0481 15.4623 14.6812 15.0717 15.0717C14.6812 15.4623 14.0481 15.4623 13.6575 15.0717L0.929612 2.34383C0.539088 1.9533 0.539088 1.32014 0.929612 0.929612Z" fill="#323232"/>
<path fill-rule="evenodd" clip-rule="evenodd" d="M15.0717 0.929612C15.4623 1.32014 15.4623 1.9533 15.0717 2.34383L2.34383 15.0717C1.9533 15.4623 1.32014 15.4623 0.929612 15.0717C0.539088 14.6812 0.539087 14.0481 0.929612 13.6575L13.6575 0.929612C14.0481 0.539088 14.6812 0.539088 15.0717 0.929612Z" fill="#323232"/>
</svg>
