<svg width="300" height="300" viewBox="0 0 300 300" fill="none" xmlns="http://www.w3.org/2000/svg">
<circle cx="150" cy="150" r="150" fill="#5EC1C7"/>
<path d="M233.496 207.129H215.918V189.551C215.918 188.584 215.127 187.793 214.16 187.793H203.614C202.647 187.793 201.856 188.584 201.856 189.551V207.129H184.278C183.311 207.129 182.52 207.92 182.52 208.887V219.434C182.52 220.4 183.311 221.191 184.278 221.191H201.856V238.77C201.856 239.736 202.647 240.527 203.614 240.527H214.16C215.127 240.527 215.918 239.736 215.918 238.77V221.191H233.496C234.463 221.191 235.254 220.4 235.254 219.434V208.887C235.254 207.92 234.463 207.129 233.496 207.129ZM119.568 147.012C119.37 145.1 119.261 143.166 119.261 141.211C119.261 137.717 119.59 134.311 120.205 130.994C120.359 130.203 119.942 129.39 119.217 129.06C116.228 127.72 113.482 125.874 111.109 123.545C108.312 120.834 106.112 117.569 104.648 113.96C103.184 110.351 102.488 106.476 102.605 102.583C102.803 95.5298 105.638 88.8281 110.581 83.7744C116.009 78.2153 123.304 75.1831 131.06 75.271C138.069 75.3369 144.837 78.0395 149.956 82.8296C151.692 84.4555 153.186 86.2573 154.439 88.1909C154.878 88.872 155.735 89.1577 156.482 88.894C160.349 87.5537 164.436 86.6089 168.633 86.1694C169.864 86.0376 170.567 84.7192 170.017 83.6206C162.876 69.4922 148.286 59.7363 131.411 59.4726C107.066 59.0991 86.763 79.0722 86.763 103.418C86.763 117.217 93.1131 129.521 103.067 137.585C96.0794 140.815 89.6414 145.276 84.0604 150.857C72.0193 162.876 65.2078 178.74 64.7684 195.681C64.7625 195.916 64.8036 196.149 64.8894 196.367C64.9751 196.586 65.1036 196.785 65.2674 196.953C65.4312 197.121 65.627 197.254 65.8432 197.345C66.0594 197.436 66.2916 197.483 66.5262 197.483H78.8528C79.7977 197.483 80.5887 196.736 80.6107 195.791C81.0281 183.047 86.1917 171.116 95.2664 162.063C101.726 155.603 109.637 151.121 118.272 148.945C119.107 148.704 119.678 147.891 119.568 147.012V147.012ZM218.555 141.211C218.555 117.173 199.241 97.6391 175.291 97.2656C150.945 96.8921 130.664 116.865 130.664 141.211C130.664 155.01 137.036 167.314 146.968 175.378C139.908 178.651 133.482 183.144 127.984 188.65C115.943 200.669 109.131 216.533 108.692 233.452C108.686 233.687 108.727 233.92 108.813 234.138C108.898 234.357 109.027 234.556 109.191 234.724C109.355 234.892 109.55 235.025 109.767 235.116C109.983 235.207 110.215 235.254 110.45 235.254H122.754C123.699 235.254 124.49 234.507 124.512 233.562C124.929 220.818 130.093 208.887 139.168 199.834C148.638 190.364 161.206 185.156 174.61 185.156C198.867 185.156 218.555 165.491 218.555 141.211ZM194.495 161.096C189.178 166.414 182.124 169.336 174.61 169.336C167.095 169.336 160.042 166.414 154.724 161.096C152.071 158.457 149.974 155.311 148.559 151.846C147.144 148.381 146.438 144.668 146.485 140.925C146.551 133.718 149.429 126.753 154.461 121.589C159.734 116.184 166.787 113.174 174.324 113.086C181.773 113.02 189.002 115.92 194.319 121.128C199.768 126.467 202.757 133.608 202.757 141.211C202.735 148.726 199.812 155.779 194.495 161.096V161.096Z" fill="white"/>
</svg>
