<svg width="64" height="64" viewBox="0 0 64 64" fill="none" xmlns="http://www.w3.org/2000/svg">
<circle cx="32" cy="32" r="32" fill="#E33954"/>
<path d="M31.6 12C33.2467 11.9998 34.834 12.6151 36.0503 13.7253C37.2666 14.8354 38.0239 16.3601 38.1736 18H48.4C48.8561 18.0001 49.2951 18.1734 49.6283 18.4847C49.9615 18.7961 50.1642 19.2223 50.1953 19.6773C50.2263 20.1323 50.0836 20.5821 49.7958 20.9359C49.508 21.2897 49.0966 21.521 48.6448 21.5832L48.4 21.6H47.0008L43.96 47.952C43.8246 49.1217 43.2639 50.2009 42.3846 50.9842C41.5053 51.7674 40.3688 52.2002 39.1912 52.2H24.0088C22.8312 52.2002 21.6947 51.7674 20.8154 50.9842C19.9361 50.2009 19.3754 49.1217 19.24 47.952L16.1968 21.6H14.8C14.365 21.6 13.9448 21.4425 13.617 21.1566C13.2892 20.8707 13.076 20.4757 13.0168 20.0448L13 19.8C13 19.365 13.1575 18.9448 13.4434 18.617C13.7293 18.2892 14.1243 18.076 14.5552 18.0168L14.8 18H25.0264C25.1761 16.3601 25.9334 14.8354 27.1497 13.7253C28.366 12.6151 29.9533 11.9998 31.6 12ZM28 27C27.412 27 26.92 27.372 26.8192 27.8616L26.8 28.0512V42.7512L26.8192 42.9384C26.92 43.428 27.412 43.8 28 43.8C28.588 43.8 29.08 43.428 29.1808 42.9384L29.2 42.7488V28.0536L29.1808 27.8616C29.08 27.3744 28.588 27 28 27ZM35.2 27C34.612 27 34.12 27.372 34.0192 27.8616L34 28.0512V42.7512L34.0192 42.9384C34.12 43.428 34.612 43.8 35.2 43.8C35.788 43.8 36.28 43.428 36.3808 42.9384L36.4 42.7488V28.0536L36.3808 27.8616C36.28 27.3744 35.788 27.0024 35.2 27.0024V27ZM31.6 15.6C30.148 15.6 28.936 16.632 28.66 18H34.54C34.2616 16.632 33.052 15.6 31.6 15.6Z" fill="white"/>
</svg>
