<svg xmlns="http://www.w3.org/2000/svg" version="1.1" xmlns:xlink="http://www.w3.org/1999/xlink" width="512" height="512" x="0" y="0" viewBox="0 0 512 512" style="enable-background:new 0 0 512 512" xml:space="preserve" class=""><circle r="256" cx="256" cy="256" fill="#9D2235" shape="circle"></circle><g transform="matrix(0.7,0,0,0.7,76.80000000000001,76.7995491027832)"><path fill-rule="evenodd" d="M58.724 277.91a6.3 6.3 0 1 0-12.6 0c0 16.154 14.927 29.59 34.35 31.994v9.76a6.3 6.3 0 0 0 12.6 0V309.9c19.423-2.4 34.35-15.84 34.35-31.994 0-16.177-14.927-29.59-34.35-32.018V206.4c12.284 2.091 21.754 10.071 21.754 19.278a6.3 6.3 0 1 0 12.6 0c0-16.154-14.927-29.59-34.35-31.994v-9.76a6.3 6.3 0 0 0-12.595 0v9.76c-19.423 2.427-34.35 15.84-34.35 31.994 0 16.177 14.927 29.614 34.35 32.018v39.494c-12.313-2.09-21.759-10.073-21.759-19.28zm56.1 0c0 9.207-9.47 17.187-21.754 19.279v-38.557c12.284 2.067 21.754 10.048 21.754 19.278zm-56.1-52.233c0-9.207 9.446-17.187 21.754-19.278v38.58c-12.308-2.091-21.754-10.072-21.754-19.3zM512 191.447v203.118a3.909 3.909 0 0 1-3.894 3.894H363.568a3.888 3.888 0 0 1-3.87-3.894V191.447a3.873 3.873 0 0 1 3.87-3.894h144.538a3.893 3.893 0 0 1 3.894 3.894zM302.8 64.7l74.733 74.108h-62.112a12.654 12.654 0 0 1-12.62-12.644V64.7zM105.717 54.553h184.488v71.608a25.241 25.241 0 0 0 25.216 25.215h71.608v23.581h-23.461a16.5 16.5 0 0 0-16.466 16.49v203.118a16.475 16.475 0 0 0 16.466 16.465h23.461v33.77a12.66 12.66 0 0 1-12.644 12.644H105.717A12.66 12.66 0 0 1 93.073 444.8v-93.84a99.366 99.366 0 0 0 0-198.334V67.2a12.66 12.66 0 0 1 12.644-12.644zM86.776 165.03A86.764 86.764 0 1 1 0 251.805a86.86 86.86 0 0 1 86.776-86.775zm169.417 108.746V308.9h-38.581a6.289 6.289 0 0 0-6.3 6.3v28.845h-38.58a6.289 6.289 0 0 0-6.3 6.3v67.69H139.61a6.3 6.3 0 0 0 0 12.6h200.882a6.3 6.3 0 1 0 0-12.6h-26.826V273.776a6.288 6.288 0 0 0-6.3-6.3H262.49a6.288 6.288 0 0 0-6.3 6.3zm-32.283 47.715v96.534h32.283v-96.534zm-44.9 35.142v61.392h32.306v-61.392zm89.78-76.559v137.951h32.283V280.074zm101.583-26.8h130.954a6.284 6.284 0 0 0 6.274-6.3v-48.748a6.3 6.3 0 0 0-6.274-6.3H370.371a6.3 6.3 0 0 0-6.3 6.3v48.748a6.289 6.289 0 0 0 6.3 6.3zm6.3-48.748v36.152H495.03v-36.154zm-6.3 96.8h32.162a6.289 6.289 0 0 0 6.3-6.3v-25.89a6.283 6.283 0 0 0-6.3-6.273h-32.164a6.283 6.283 0 0 0-6.3 6.273v25.889a6.289 6.289 0 0 0 6.3 6.3zm6.3-25.889v13.293h19.566v-13.296zm75.261-12.571h-32.166a6.283 6.283 0 0 0-6.3 6.273v25.889a6.289 6.289 0 0 0 6.3 6.3h32.162a6.289 6.289 0 0 0 6.3-6.3v-25.892a6.283 6.283 0 0 0-6.3-6.273zm-6.3 25.864v-13.296h-19.568v13.293zm55.695-25.864h-32.164a6.283 6.283 0 0 0-6.3 6.273v25.889a6.289 6.289 0 0 0 6.3 6.3h32.162a6.284 6.284 0 0 0 6.274-6.3v-25.892a6.278 6.278 0 0 0-6.274-6.273zm-6.3 25.864v-13.296h-19.566v13.293zM370.371 345.1h32.162a6.288 6.288 0 0 0 6.3-6.3v-25.891a6.3 6.3 0 0 0-6.3-6.3h-32.162a6.3 6.3 0 0 0-6.3 6.3V338.8a6.288 6.288 0 0 0 6.3 6.3zm6.3-25.888V332.5h19.566v-13.293zm75.261-12.6h-32.164a6.3 6.3 0 0 0-6.3 6.3V338.8a6.289 6.289 0 0 0 6.3 6.3h32.162a6.288 6.288 0 0 0 6.3-6.3v-25.891a6.3 6.3 0 0 0-6.3-6.3zm-6.3 25.888v-13.293h-19.566V332.5zm55.695-25.888h-32.162a6.3 6.3 0 0 0-6.3 6.3V338.8a6.289 6.289 0 0 0 6.3 6.3h32.162a6.283 6.283 0 0 0 6.274-6.3v-25.891a6.3 6.3 0 0 0-6.274-6.3zm-6.3 25.888v-13.293h-19.564V332.5zm-124.656 56.368h32.162a6.289 6.289 0 0 0 6.3-6.3v-25.886a6.3 6.3 0 0 0-6.3-6.3h-32.162a6.3 6.3 0 0 0-6.3 6.3v25.888a6.289 6.289 0 0 0 6.3 6.3zm6.3-25.889v13.293h19.566v-13.293zm75.261-12.595h-32.164a6.3 6.3 0 0 0-6.3 6.3v25.886a6.289 6.289 0 0 0 6.3 6.3h32.162a6.289 6.289 0 0 0 6.3-6.3v-25.888a6.3 6.3 0 0 0-6.3-6.3zm-6.3 25.888v-13.293h-19.566v13.293zm55.695-25.888h-32.162a6.3 6.3 0 0 0-6.3 6.3v25.886a6.289 6.289 0 0 0 6.3 6.3h32.162a6.284 6.284 0 0 0 6.274-6.3v-25.888a6.3 6.3 0 0 0-6.274-6.3zm-6.3 25.888v-13.293h-19.564v13.293zM217.276 198.01a43.282 43.282 0 0 0 43.224-43.22 6.3 6.3 0 0 0-6.3-6.3h-30.627v-30.622a6.3 6.3 0 0 0-6.3-6.3 43.22 43.22 0 1 0 0 86.44zm-6.3-73.195a30.627 30.627 0 1 0 36.272 36.273h-29.972a6.3 6.3 0 0 1-6.3-6.3zm26.249 16.3h36.921a6.3 6.3 0 0 0 6.3-6.274 43.265 43.265 0 0 0-43.219-43.219 6.289 6.289 0 0 0-6.3 6.3v36.921a6.283 6.283 0 0 0 6.3 6.274zm6.3-36.248v23.677H267.2a30.673 30.673 0 0 0-23.675-23.68z" fill="#ffffff" opacity="1" data-original="#000000" class=""></path></g></svg>