<svg xmlns="http://www.w3.org/2000/svg" version="1.1" xmlns:xlink="http://www.w3.org/1999/xlink" width="512" height="512" x="0" y="0" viewBox="0 0 512 512" style="enable-background:new 0 0 512 512" xml:space="preserve" class=""><circle r="256" cx="256" cy="256" fill="#9D2235" shape="circle" transform="matrix(1,0,0,1,0,0)"></circle><g transform="matrix(0.7,0,0,0.7,76.80000000000001,76.79999542236328)"><path fill-rule="evenodd" d="M178.242 341.151h311.612v21.227H295.916a8 8 0 0 0 0 16h193.939v10.555H234.921a8 8 0 0 0 0 16h254.933v21.227H178.242c-13.253 0-24.097-10.843-24.097-24.097v-36.816c.001-13.253 10.844-24.096 24.097-24.096zM53.983 244.059l116.466 81.854c2.522-.5 5.128-.762 7.793-.762h286.785l-78.558-50.626c-12.352 2.382-24.706 4.75-37.077 6.997-15.529 2.821-31.208 5.397-47.034 5.397s-31.506-2.576-47.034-5.397c-31.545-5.73-62.988-12.051-94.538-17.819v-19.644zM16 268.156c0-9.51 5.583-17.779 13.632-21.691l124.009 87.156c-9.42 7.348-15.496 18.801-15.496 31.627 0 12.473-.224 25.147.007 37.595L21.316 318.829C17.062 315.77 16 310.277 16 304.972zm466.89-63.68 13.11 7.569v53.954l-21.109-15.874-21.11 15.874v-53.954l13.109-7.569v-64.779l-164.532 43.705-183.643-48.781L302.358 85.84 486 134.622l-3.11.826zm-54.96-37.875v83.762c-149.888 27.408-101.256 27.408-251.144 0v-83.762l125.572 33.356z" clip-rule="evenodd" fill="#ffffff" opacity="1" data-original="#000000" class=""></path></g></svg>