<svg xmlns="http://www.w3.org/2000/svg" version="1.1" xmlns:xlink="http://www.w3.org/1999/xlink" width="512" height="512" x="0" y="0" viewBox="0 0 512 512" style="enable-background:new 0 0 512 512" xml:space="preserve" class=""><circle r="256" cx="256" cy="256" fill="#9D2235" shape="circle"></circle><g transform="matrix(0.7,0,0,0.7,76.80000000000001,76.80000000000001)"><path d="M215.2 40.8A40.8 40.8 0 1 1 256 81.6a40.808 40.808 0 0 1-40.8-40.8zM81.6 215.2H0v81.6h81.6zm348.794 0v81.6H512v-81.6zM256 430.4a40.8 40.8 0 1 0 40.8 40.8 40.809 40.809 0 0 0-40.8-40.8zm61-284.182v18.331h18.361zm-14.368-7.2v32.729a7.171 7.171 0 0 0 7.17 7.2h32.757v194.04H169.443V139.016zm-113.02 34.1a7.214 7.214 0 0 0 7.2 7.2h84.048a7.2 7.2 0 0 0 0-14.4h-84.051a7.2 7.2 0 0 0-7.199 7.197zm24.8 165.77a7.2 7.2 0 0 0-7.2-7.2h-10.4a7.2 7.2 0 1 0 0 14.4h10.4a7.177 7.177 0 0 0 7.2-7.203zm0-33.165a7.2 7.2 0 0 0-7.2-7.2h-10.4a7.2 7.2 0 1 0 0 14.4h10.4a7.177 7.177 0 0 0 7.2-7.203zm0-33.137a7.177 7.177 0 0 0-7.2-7.2h-10.4a7.2 7.2 0 1 0 0 14.4h10.4a7.2 7.2 0 0 0 7.2-7.203zm0-33.166a7.2 7.2 0 0 0-7.2-7.2h-10.4a7.2 7.2 0 1 0 0 14.4h10.4a7.2 7.2 0 0 0 7.2-7.203zm0-33.166a7.2 7.2 0 0 0-7.2-7.2h-10.4a7.2 7.2 0 1 0 0 14.4h10.4a7.177 7.177 0 0 0 7.2-7.203zm107.949 132.631a7.2 7.2 0 0 0-7.2-7.2h-87.11a7.2 7.2 0 0 0 0 14.4h87.111a7.177 7.177 0 0 0 7.199-7.2zm0-33.165a7.2 7.2 0 0 0-7.2-7.2h-87.11a7.2 7.2 0 0 0 0 14.4h87.111a7.177 7.177 0 0 0 7.199-7.2zm0-33.137a7.177 7.177 0 0 0-7.2-7.2h-87.11a7.2 7.2 0 0 0 0 14.4h87.111a7.2 7.2 0 0 0 7.199-7.2zm0-33.166a7.2 7.2 0 0 0-7.2-7.2h-87.11a7.2 7.2 0 0 0 0 14.4h87.111a7.2 7.2 0 0 0 7.199-7.2zm-94.31-40.364a7.2 7.2 0 0 0 0 14.4h87.111a7.2 7.2 0 1 0 0-14.4zM335.213 88.831a7.171 7.171 0 1 0 13-6.062l-7.985-17.02A208.686 208.686 0 0 1 452.4 187.279a7.176 7.176 0 1 0 13.552-4.722A223.166 223.166 0 0 0 346.725 52.925l16.466-5.683a7.166 7.166 0 1 0-4.663-13.552l-34.564 11.949a5.8 5.8 0 0 0-.9.35 7.155 7.155 0 0 0-3.439 9.53zM46.164 187.57a7.165 7.165 0 0 0 10 3.7l32.554-17.107a7.189 7.189 0 0 0-6.674-12.736l-15.271 8.044A208.716 208.716 0 0 1 188.211 59.279a7.193 7.193 0 1 0-4.663-13.61A223.275 223.275 0 0 0 52.809 165.537l-6.936-17.428a7.163 7.163 0 1 0-13.319 5.275zm419.73 137.006a7.289 7.289 0 0 0-9.938-3.935l-32.932 16.408a7.195 7.195 0 0 0 6.411 12.882l16.03-7.986a208.552 208.552 0 0 1-121.7 110.747 7.193 7.193 0 0 0 4.663 13.61 223.082 223.082 0 0 0 130.53-119.315l6.354 17.049a7.17 7.17 0 1 0 13.435-5.012zm-289.136 98.593a7.158 7.158 0 1 0-12.969 6.062l7.956 17.02A208.666 208.666 0 0 1 59.6 324.721a7.176 7.176 0 1 0-13.552 4.722 223.151 223.151 0 0 0 119.2 129.632l-16.466 5.683a7.166 7.166 0 0 0 4.663 13.552l34.564-11.949c.321-.117.612-.233.9-.35a7.193 7.193 0 0 0 3.468-9.53z" fill="#ffffff" opacity="1" data-original="#000000" class=""></path></g></svg>